<?xml version="1.0" encoding="UTF-8"?>
<svg id="_图层_1" data-name="图层_1" xmlns="http://www.w3.org/2000/svg" version="1.1" viewBox="0 0 163.9 93.1">
  <!-- Generator: Adobe Illustrator 29.7.1, SVG Export Plug-In . SVG Version: 2.1.1 Build 8)  -->
  <defs>
    <style>
      .st0 {
        fill: #2c2c2c;
      }
    </style>
  </defs>
  <path class="st0" d="M0,82.9c0-2.8,1.1-5.4,3-7.4L74.5,4.2c.3-.3.5-.5.7-.6l.5-.4c2.1-2.1,4.5-3.1,7.2-3.1s5.1,1,7,2.9l71.1,71.8c1.9,1.9,3,4.5,3,7.3s-1,5.3-2.9,7.2c-1.9,1.9-4.5,3-7.1,3-2.6,0-5.1-1-7-3L82.8,24.5,17,90.2c-1.9,1.9-4.4,2.9-7,2.9s-5.3-1.1-7.2-3.1C1,88.1,0,85.5,0,82.9h0Z"/>
</svg>