<?xml version="1.0" encoding="UTF-8"?>
<svg id="_图层_1" xmlns="http://www.w3.org/2000/svg" version="1.1" viewBox="0 0 166.7 166.6">
  <!-- Generator: Adobe Illustrator 29.7.1, SVG Export Plug-In . SVG Version: 2.1.1 Build 8)  -->
  <defs>
    <style>
      .st0 {
        fill: #2c2c2c;
      }
    </style>
  </defs>
  <path class="st0" d="M158.3,62.5c4.6,0,8.3-3.7,8.3-8.3h0c0-4.6-3.7-8.3-8.3-8.3h-33.3l4.1-36.6v-.9c0-4.2-3.2-7.8-7.4-8.3-4.6-.5-8.7,2.8-9.2,7.4l-4.3,38.4h-41.6l4.1-36.6h0c.5-4.6-2.8-8.7-7.4-9.2s-8.7,2.8-9.2,7.4l-4.3,38.4H8.3c-4.6,0-8.3,3.7-8.3,8.3h0c0,4.6,3.7,8.3,8.3,8.3h39.8l-4.6,41.7H8.3c-4.6,0-8.3,3.7-8.3,8.3h0c0,4.6,3.7,8.3,8.3,8.3h33.3l-4.1,36.6v.9c0,4.2,3.2,7.8,7.4,8.3,4.6.5,8.7-2.8,9.2-7.4l4.3-38.4h41.6l-4.1,36.6v.9c0,4.2,3.2,7.8,7.4,8.3,4.6.5,8.7-2.8,9.2-7.4l4.3-38.4h41.6c4.6,0,8.3-3.7,8.3-8.3h0c0-4.6-3.7-8.3-8.3-8.3h-39.8l4.6-41.7h35.1ZM101.8,104.1h-41.6l4.6-41.7h41.6l-4.6,41.7Z"/>
</svg>