<?xml version="1.0" encoding="UTF-8"?>
<svg id="_图层_1" data-name="图层_1" xmlns="http://www.w3.org/2000/svg" version="1.1" viewBox="0 0 158.2 170.8">
  <!-- Generator: Adobe Illustrator 29.7.1, SVG Export Plug-In . SVG Version: 2.1.1 Build 8)  -->
  <defs>
    <style>
      .st0 {
        fill: #2c2c2c;
      }
    </style>
  </defs>
  <path class="st0" d="M94.9,72.6l-26.5,26.5-9.3-9.3c-3.3-3.3-8.5-3.3-11.8,0s-3.3,8.5,0,11.8l15.2,15.2c1.6,1.6,3.8,2.4,5.9,2.4s1.1-.1,1.6-.2c1.6-.3,3.1-1.1,4.3-2.3l32.4-32.3c3.3-3.3,3.3-8.5,0-11.8-3.3-3.2-8.6-3.2-11.8,0Z"/>
  <path class="st0" d="M133.7,12.5h-17.2v-4.2c0-4.6-3.7-8.3-8.3-8.3s-8.3,3.7-8.3,8.3v4.2h-41.7v-4.2c0-4.6-3.7-8.3-8.3-8.3s-8.3,3.7-8.3,8.3v4.2h-17.1C11,12.5,0,23.5,0,37v109.3c0,13.5,11,24.5,24.5,24.5h109.2c13.5,0,24.5-11,24.5-24.5V37c0-13.5-11-24.5-24.5-24.5ZM133.7,154.2H24.5c-4.3,0-7.9-3.5-7.9-7.9V37c0-4.3,3.5-7.9,7.9-7.9h17.1v4.2c0,4.6,3.7,8.3,8.3,8.3s8.3-3.7,8.3-8.3v-4.2h41.7v4.2c0,4.6,3.7,8.3,8.3,8.3s8.3-3.7,8.3-8.3v-4.2h17.1c4.3,0,7.9,3.5,7.9,7.9v109.3h.1c0,4.3-3.5,7.9-7.9,7.9h0Z"/>
</svg>