<?xml version="1.0" encoding="UTF-8"?>
<svg id="_图层_1" xmlns="http://www.w3.org/2000/svg" version="1.1" viewBox="0 0 163.9 163.9">
  <!-- Generator: Adobe Illustrator 29.7.1, SVG Export Plug-In . SVG Version: 2.1.1 Build 8)  -->
  <defs>
    <style>
      .st0 {
        fill: #2c2c2c;
      }
    </style>
  </defs>
  <path class="st0" d="M163.9,45.6c0,2.8-1.1,5.4-3,7.4l-71.5,71.4c-.3.3-.5.5-.7.6l-.5.4c-2.1,2.1-4.6,3.1-7.2,3.1s-5.1-1-7-2.9L3,53.7c-1.9-1.9-3-4.5-3-7.3s1-5.3,2.9-7.2c1.8-1.9,4.5-3,7.1-3s5.1,1,7,3l64.1,64.8,65.9-65.7c1.9-1.9,4.4-2.9,7-2.9s5.3,1.1,7.2,3.1c1.8,1.9,2.8,4.4,2.8,7.1h-.1Z"/>
</svg>