<?xml version="1.0" encoding="UTF-8"?>
<svg id="_图层_1" data-name="图层_1" xmlns="http://www.w3.org/2000/svg" version="1.1" viewBox="0 0 150 150">
  <!-- Generator: Adobe Illustrator 29.7.1, SVG Export Plug-In . SVG Version: 2.1.1 Build 8)  -->
  <defs>
    <style>
      .st0 {
        fill: #2c2c2c;
      }
    </style>
  </defs>
  <path class="st0" d="M0,16.7C0,7.5,7.5,0,16.7,0h116.7c9.2,0,16.7,7.5,16.7,16.7v116.7c0,9.2-7.5,16.7-16.7,16.7H16.7C7.5,150,0,142.5,0,133.3c0,0,0-116.7,0-116.7ZM16.7,91.7v41.7h116.7v-41.7h-19l-6.4,19.3c-1.1,3.4-4.3,5.7-7.9,5.7h-50c-3.6,0-6.8-2.3-7.9-5.7l-6.4-19.3s-19,0-19,0ZM133.3,75V16.7H16.7v58.3h19c7.2,0,13.5,4.6,15.8,11.4l4.5,13.6h38l4.5-13.6c2.3-6.8,8.6-11.4,15.8-11.4h19,0Z"/>
</svg>