<?xml version="1.0" encoding="UTF-8"?>
<svg id="_图层_1" data-name="图层_1" xmlns="http://www.w3.org/2000/svg" version="1.1" viewBox="0 0 141.7 141.7">
  <!-- Generator: Adobe Illustrator 29.7.1, SVG Export Plug-In . SVG Version: 2.1.1 Build 8)  -->
  <defs>
    <style>
      .st0 {
        fill: #2c2c2c;
      }
    </style>
  </defs>
  <path class="st0" d="M131.8,80.7H9.9C4.5,80.8,0,76.5,0,71.2c0-.1,0-.2,0-.3C0,65.2,4.3,61,9.9,61h121.9c5.6,0,9.9,4.3,9.9,9.9s-4.3,9.9-9.9,9.9h0Z"/>
  <path class="st0" d="M70.8,141.7c-5.4,0-9.8-4.2-9.9-9.5,0-.1,0-.2,0-.3V9.9c0-5.6,4.3-9.9,9.9-9.9s9.9,4.3,9.9,9.9v121.9c0,5.6-4.3,9.9-9.9,9.9h0Z"/>
</svg>